<svg viewBox="0 0 415.2 103.2" xmlns="http://www.w3.org/2000/svg">
<path fill="#000000" d="M416.7,0.5v104.2H0.5v-2h1.7c19.4,0,30.5-2.2,37.7-14.3c2.3-3.8,2.7-8.3,3.2-13c0.3-3.5,0.7-7.1,1.8-10.7
	c3.2-10,11.1-17.4,21.7-20.3c2.8-0.7,6.4-1.1,11.3-1.1c2.7,0,5.4,0.1,8.1,0.2c2.6,0.1,5.1,0.2,7.4,0.2h278.2c1.1,0,2.1,0,3.2,0
	c1,0,2.1,0,3.1,0c8.1,0,15.9-0.2,21.2-3.3c13.4-7.7,15.8-19.3,15.6-39.4V0.5H416.7z"/>
<path fill="#FFFFFF" d="M416.2,104.2c-138.4,0-276.8,0-415.2,0c0-0.4,0-0.7,0-1c0.4,0,0.8,0,1.2,0c19.7,0,30.9-2.3,38.1-14.6
	c4-6.8,2.4-15.5,5-23.8c3.2-9.9,11.1-17.1,21.4-19.9c3.2-0.9,7.1-1.1,11.2-1.1c5.2,0,10.7,0.4,15.4,0.4c17.8,0,35.5,0,53.3,0
	c57.8,0,115.5,0,173.3,0c17.2,0,34.4,0,51.6,0c2.2,0,4.3,0,6.4,0c8.4,0,16.1-0.3,21.5-3.4c13-7.4,16-18.6,15.8-39.8c0.4,0,0.7,0,1,0
	C416.2,35.4,416.2,69.8,416.2,104.2 M417.3,105.2v-1V1V0h-1h-1h-1v1c0.2,19.9-2.1,31.4-15.3,39c-5.3,3-12.9,3.2-21,3.2
	c-1.1,0-2.1,0-3.2,0s-2.1,0-3.2,0H320H146.7H93.4c-2.3,0-4.7-0.1-7.3-0.2c-2.7-0.1-5.4-0.2-8.1-0.2c-5,0-8.6,0.4-11.4,1.1
	c-10.8,2.9-18.9,10.4-22.1,20.6c-1.2,3.6-1.5,7.3-1.9,10.8c-0.5,4.6-0.9,9-3.1,12.7c-7.1,12-18.1,14.2-37.3,14.2c-0.4,0-0.8,0-1.2,0
	H0v1v1v1h1h415.2h1H417.3z"/>
</svg>
