<svg viewBox="0 0 415.2 103.2" xmlns="http://www.w3.org/2000/svg">
	<path fill="#000000" d="M414.7,102.7l0-0.5c0.2-20.1-2.2-31.7-15.6-39.4c-5.3-3.1-13.1-3.3-21.2-3.3c-1,0-2.1,0-3.1,0
		c-1.1,0-2.1,0-3.2,0H93.4c-2.3,0-4.8,0.1-7.4,0.2c-2.7,0.1-5.4,0.2-8.1,0.2c-4.9,0-8.5-0.4-11.3-1.1C56,55.9,48.1,48.5,44.9,38.5
		c-1.1-3.6-1.5-7.2-1.8-10.7c-0.5-4.7-0.9-9.2-3.2-13C32.7,2.7,21.6,0.5,2.2,0.5l-1.7,0v-2h416.2v104.2H414.7z"/>
	<path fill="#ffffff" d="M416.2-1c0,34.4,0,68.8,0,103.2c-0.3,0-0.6,0-1,0c0.2-21.2-2.8-32.4-15.8-39.8c-5.4-3.1-13.1-3.4-21.5-3.4
		c-2.1,0-4.2,0-6.4,0c-17.2,0-34.4,0-51.6,0c-57.8,0-115.5,0-173.3,0c-17.8,0-35.5,0-53.3,0c-4.7,0-10.2,0.4-15.4,0.4
		c-4.1,0-8-0.2-11.2-1.1c-10.3-2.8-18.2-10-21.4-19.9c-2.6-8.3-1-17-5-23.8C33.1,2.3,21.9,0,2.2,0C1.8,0,1.4,0,1,0c0-0.3,0-0.6,0-1
		C139.4-1,277.8-1,416.2-1 M417.2-2h-1H1H0v1v1v1l1,0c0.4,0,0.8,0,1.2,0c19.2,0,30.2,2.2,37.3,14.2c2.2,3.7,2.6,8.1,3.1,12.7
		c0.4,3.5,0.7,7.2,1.9,10.8c3.2,10.2,11.3,17.7,22.1,20.6C69.4,60,73,60.4,78,60.4c2.7,0,5.4-0.1,8.1-0.2c2.6-0.1,5-0.2,7.3-0.2
		h53.3H320h51.6c1.1,0,2.1,0,3.2,0c1.1,0,2.1,0,3.2,0c8.1,0,15.7,0.2,21,3.2c13.2,7.6,15.5,19.1,15.3,39l0,1h1h1h1v-1V-1V-2L417.2-2
		z"/>
</svg>
