<svg viewBox="0 0 300 43" fill="none" xmlns="http://www.w3.org/2000/svg">
<path d="M-533 -16H832V-18H-533V-16ZM-546 29V-3H-548V29H-546ZM2 42H-533V44H2V42ZM17 29V15H15V29H17ZM30 2H270V0H30V2ZM283 15V29H285V15H283ZM832 42H298V44H832V42ZM845 -3V29H847V-3H845ZM832 44C840.284 44 847 37.2843 847 29H845C845 36.1797 839.18 42 832 42V44ZM283 29C283 37.2843 289.716 44 298 44V42C290.82 42 285 36.1797 285 29H283ZM270 2C277.18 2 283 7.8203 283 15H285C285 6.71573 278.284 0 270 0V2ZM17 15C17 7.8203 22.8203 2 30 2V0C21.7157 0 15 6.71573 15 15H17ZM2 44C10.2843 44 17 37.2843 17 29H15C15 36.1797 9.1797 42 2 42V44ZM-548 29C-548 37.2843 -541.284 44 -533 44V42C-540.18 42 -546 36.1797 -546 29H-548ZM832 -16C839.18 -16 845 -10.1797 845 -3H847C847 -11.2843 840.284 -18 832 -18V-16ZM-533 -18C-541.284 -18 -548 -11.2843 -548 -3H-546C-546 -10.1797 -540.18 -16 -533 -16V-18Z" fill="white" />
</svg>
