<svg viewBox="0 0 415.2 103.2" xmlns="http://www.w3.org/2000/svg"><path d="M416.7.5v104.2H.5v-2h1.7c19.4 0 30.5-2.2 37.7-14.3 2.3-3.8 2.7-8.3 3.2-13 .3-3.5.7-7.1 1.8-10.7 3.2-10 11.1-17.4 21.7-20.3 2.8-.7 6.4-1.1 11.3-1.1 2.7 0 5.4.1 8.1.2 2.6.1 5.1.2 7.4.2h284.5c8.1 0 15.9-.2 21.2-3.3 13.4-7.7 15.8-19.3 15.6-39.4V.5h2z"/><path fill="#FFF" d="M416.2 104.2H1v-1h1.2c19.7 0 30.9-2.3 38.1-14.6 4-6.8 2.4-15.5 5-23.8 3.2-9.9 11.1-17.1 21.4-19.9 3.2-.9 7.1-1.1 11.2-1.1 5.2 0 10.7.4 15.4.4h284.6c8.4 0 16.1-.3 21.5-3.4 13-7.4 16-18.6 15.8-39.8h1v103.2m1.1 1V0h-3v1c.2 19.9-2.1 31.4-15.3 39-5.3 3-12.9 3.2-21 3.2H93.4c-2.3 0-4.7-.1-7.3-.2-2.7-.1-5.4-.2-8.1-.2-5 0-8.6.4-11.4 1.1-10.8 2.9-18.9 10.4-22.1 20.6-1.2 3.6-1.5 7.3-1.9 10.8-.5 4.6-.9 9-3.1 12.7-7.1 12-18.1 14.2-37.3 14.2H0v3h417.3z"/></svg>