<svg viewBox="0 0 415.2 103.2" xmlns="http://www.w3.org/2000/svg"><path d="M414.7 102.7v-.5c.2-20.1-2.2-31.7-15.6-39.4-5.3-3.1-13.1-3.3-21.2-3.3H93.4c-2.3 0-4.8.1-7.4.2-2.7.1-5.4.2-8.1.2-4.9 0-8.5-.4-11.3-1.1C56 55.9 48.1 48.5 44.9 38.5c-1.1-3.6-1.5-7.2-1.8-10.7-.5-4.7-.9-9.2-3.2-13C32.7 2.7 21.6.5 2.2.5H.5v-2h416.2v104.2h-2z"/><path fill="#fff" d="M416.2-1v103.2h-1c.2-21.2-2.8-32.4-15.8-39.8-5.4-3.1-13.1-3.4-21.5-3.4H93.3c-4.7 0-10.2.4-15.4.4-4.1 0-8-.2-11.2-1.1-10.3-2.8-18.2-10-21.4-19.9-2.6-8.3-1-17-5-23.8C33.1 2.3 21.9 0 2.2 0H1v-1h415.2m1-1H0v3h2.2c19.2 0 30.2 2.2 37.3 14.2 2.2 3.7 2.6 8.1 3.1 12.7.4 3.5.7 7.2 1.9 10.8 3.2 10.2 11.3 17.7 22.1 20.6 2.8.7 6.4 1.1 11.4 1.1 2.7 0 5.4-.1 8.1-.2 2.6-.1 5-.2 7.3-.2H378c8.1 0 15.7.2 21 3.2 13.2 7.6 15.5 19.1 15.3 39v1h3V-2h-.1z"/></svg>