<svg viewBox="0 0 300 43" fill="none" xmlns="http://www.w3.org/2000/svg"><path d="M-533-16H832v-2H-533v2Zm-13 45V-3h-2v32h2ZM2 42h-535v2H2v-2Zm15-13V15h-2v14h2ZM30 2h240V0H30v2Zm253 13v14h2V15h-2Zm549 27H298v2h534v-2Zm13-45v32h2V-3h-2Zm-13 47c8.284 0 15-6.716 15-15h-2c0 7.18-5.82 13-13 13v2ZM283 29c0 8.284 6.716 15 15 15v-2c-7.18 0-13-5.82-13-13h-2ZM270 2c7.18 0 13 5.82 13 13h2c0-8.284-6.716-15-15-15v2ZM17 15c0-7.18 5.82-13 13-13V0c-8.284 0-15 6.716-15 15h2ZM2 44c8.284 0 15-6.716 15-15h-2c0 7.18-5.82 13-13 13v2Zm-550-15c0 8.284 6.716 15 15 15v-2c-7.18 0-13-5.82-13-13h-2ZM832-16c7.18 0 13 5.82 13 13h2c0-8.284-6.716-15-15-15v2Zm-1365-2c-8.284 0-15 6.716-15 15h2c0-7.18 5.82-13 13-13v-2Z" fill="#fff"/></svg>