<svg viewBox="0 0 80 80" xmlns="http://www.w3.org/2000/svg">
<path d="M40.1,79.9C18,79.9,0.1,62,0.1,39.9S18,0,40.1,0S80,17.9,80,39.9S62.1,79.9,40.1,79.9z M40.1,0.5
	C18.3,0.5,0.6,18.2,0.6,39.9c0,21.7,17.7,39.4,39.4,39.4c21.7,0,39.4-17.7,39.4-39.4C79.5,18.2,61.8,0.5,40.1,0.5z"/>
<path d="M54.8,17.6c-1.6,0.4-2.8,1-4,2.2c-0.7,0.7-0.9,1-1.2,1.6c-0.5,1-0.6,1.4-0.8,3.1c-0.3,3.4-0.9,6.1-1.7,7.7
	c-0.3,0.6-0.3,0.9-0.1,1.2c0.2,0.2,0.6,0.2,1.2-0.1c1.5-0.8,4.3-1.4,7.8-1.7c0.7-0.1,1.6-0.2,1.9-0.3c2.5-0.7,4.4-2.9,4.9-5.7
	c0.2-0.9,0.1-2.5-0.1-3.4c-0.3-1.2-1.2-2.5-2.1-3.2c-0.6-0.5-1.8-1.1-2.6-1.3C57.2,17.5,55.5,17.4,54.8,17.6z"/>
<path d="M23.2,19.3c-0.6,0.1-1.2,0.2-2,0.6c-0.6,0.3-0.8,0.5-1.2,0.9c-1.4,1.5-1.7,3.7-0.8,5.6c0.3,0.7-0.1,0.2,6.5,7
	c7,7.1,6.4,6.5,6.8,7.3c1.4,2.9,0.1,6.8-2.9,8.3c-1.4,0.7-1.6,0.8-4.3,0.8c-2.7,0-2.8,0-4.1,0.7c-1.6,0.8-2.8,2.3-3.2,4.1
	c-0.3,1.3-0.2,2.9,0.4,4.1c0.7,1.6,2.3,3,4.1,3.5c0.8,0.2,2.4,0.3,3.2,0c2.1-0.6,3.8-2.1,4.4-4.1c0.4-1.1,0.4-1.7,0.3-3.1
	c-0.2-1.8,0-3,0.7-4.4c1.6-3.2,6.1-4.6,8.9-2.7c0.2,0.2,2.6,2.4,5.3,5c8,7.8,7.7,7.6,8.4,7.9c1.9,1,4.3,0.7,5.8-0.8
	c1.6-1.6,1.9-4,0.7-5.9c-0.2-0.3-1.1-1.3-2.4-2.6c-7.6-7.5-9.3-9.2-9.4-9.2c-0.2,0-0.4,0.2-0.4,0.4c0,0.1,0.4,1.5,1,2.9
	c0.8,2.3,1,2.8,1,3.4c0,0.6,0,0.7-0.2,1c-0.9,1.4-3,0.6-5.6-2c-1.5-1.5-2.1-2.4-3.4-4.5c-1.5-2.5-1.8-2.8-4.4-4.4
	c-1.9-1.2-3.4-2.3-4.5-3.4c-2-2-2.9-3.6-2.6-4.6c0.2-0.8,0.9-1.2,1.8-1.1c0.2,0,1.2,0.3,2.2,0.7c3.9,1.4,4.1,1.4,4.2,1.2
	c0.2-0.3,0.3-0.1-9.1-9.8c-1.7-1.8-2.2-2.2-2.7-2.5C24.9,19.4,24.1,19.2,23.2,19.3z"/>
<path d="M42.1,34.6c-0.9,0.3-1.5,0.9-1.9,1.7c-0.2,0.3-0.2,0.6-0.2,1.1c0,0.6,0,0.8,0.3,1.3c0.3,0.6,0.8,1.1,1.4,1.4
	c0.4,0.2,0.6,0.2,1.3,0.2c0.8,0,0.9,0,1.4-0.3c0.6-0.3,1-0.8,1.3-1.4C46,38.2,46,38,46,37.4c0-0.6,0-0.8-0.2-1.2
	c-0.3-0.7-0.8-1.1-1.4-1.4c-0.5-0.2-0.7-0.3-1.2-0.3C42.7,34.5,42.4,34.5,42.1,34.6z"/>
</svg>
